<?xml version="1.0" encoding="utf-8"?>
<!-- Generator: Adobe Illustrator 15.1.0, SVG Export Plug-In . SVG Version: 6.00 Build 0)  -->
<!DOCTYPE svg PUBLIC "-//W3C//DTD SVG 1.1//EN" "http://www.w3.org/Graphics/SVG/1.1/DTD/svg11.dtd">
<svg version="1.1" id="Layer_1" xmlns="http://www.w3.org/2000/svg" xmlns:xlink="http://www.w3.org/1999/xlink" x="0px" y="0px"
	 width="612px" height="792px" viewBox="0 0 612 792" enable-background="new 0 0 612 792" xml:space="preserve">
<g>
	<g id="XMLID_1_">
		<g>
			<path fill="#6FB002" d="M606.29,453.53c4.08,0.81,6.53,4.08,6.53,8.97c-1.641,4.08-4.9,6.53-8.16,6.53h-0.82l-48.76-7.5
				l0.42-15.82L606.29,453.53z"/>
			<path fill="#6FB002" d="M589.15,524.52c4.08,1.631,4.899,6.53,3.27,9.79c-1.64,2.45-4.08,4.08-6.53,4.08
				c-0.819,0-2.449,0-3.27-0.81l-40.93-20.47l4.989-13.83L589.15,524.52z"/>
			<path fill="#6FB002" d="M555.7,438.02l-0.2,7.69l-16.29-2.5l0.17-6c-1.64-24.479-9.8-35.91-23.67-57.12l-4.08-5.71
				c-1.63-2.45-1.63-4.9-0.81-7.35c48.96-100.37,10.6-179.52,1.63-196.65c-69.36,3.26-140.351,80.78-159.94,105.26
				c-1.63,1.63-4.08,3.26-6.529,2.45l-39.16-2.45l-39.17,2.45c-2.45,0-4.9-0.82-6.53-2.45c-19.58-23.66-89.76-102-159.12-104.45
				c-9.79,17.14-48.14,96.29,0.82,196.66c0.81,2.45,0.81,4.89-0.82,7.34l-4.08,5.71c-13.87,21.22-22.03,32.64-23.66,57.94l0.12,4.25
				l-14.44,2.22l-0.37-7.29c2.45-30.189,11.42-44.06,26.11-66.089l1.63-2.45c-55.49-118.32,1.63-206.45,4.08-210.53
				c1.63-1.63,4.08-3.26,6.53-3.26c72.62,0,143.62,72.62,173.81,107.71l35.9-2.45h0.82l35.899,2.45
				c30.19-35.09,101.19-107.71,173.811-107.71c2.45,0,4.899,1.63,6.53,3.26c2.449,4.08,59.569,92.21,3.26,211.35l1.63,2.44
				C544.27,394.78,553.25,408.65,555.7,438.02z"/>
			<polygon fill="#6FB002" points="555.5,445.71 555.08,461.53 538.77,459.02 539.21,443.21 			"/>
			<polygon fill="#6FB002" points="555.08,461.53 554.88,469.03 550.8,491.88 546.68,503.28 531.21,495.54 534.48,486.98 
				538.56,466.58 538.77,459.02 			"/>
			<polygon fill="#6FB002" points="546.68,503.28 541.69,517.11 525.97,509.25 531.21,495.54 			"/>
			<path fill="#6FB002" d="M541.69,517.11l-1.5,4.149C505.1,593.06,418.61,636.31,307.63,636.31
				c-110.97,0-197.47-43.25-230.93-115.05l-2.3-6.189l12.16-6.08l2.38,6.55c31.01,66.1,112.61,105.27,217.06,105.27
				c105.26,0,186.05-39.989,217.87-106.079l2.1-5.48L541.69,517.11z"/>
			<path fill="#6FB002" d="M539.21,443.21l-0.44,15.81l-30.399-4.68c-4.08-0.81-6.53-4.08-6.53-8.97c0.82-4.08,4.08-6.53,8.98-6.53
				L539.21,443.21z"/>
			<path fill="#6FB002" d="M531.21,495.54l-5.24,13.71l-29.84-14.92c-4.08-1.63-4.899-6.53-3.27-9.79c1.64-4.08,6.529-4.9,9.8-3.271
				L531.21,495.54z"/>
			<path fill="#6FB002" d="M428.4,388.25c0,17.13-13.061,30.19-30.19,30.19c-16.32,0-30.19-13.061-30.19-30.19
				c0-17.14,13.051-30.19,30.19-30.19C414.53,358.06,428.4,371.11,428.4,388.25z"/>
			<path fill="#6FB002" d="M404.74,478.82h14.68c0,33.46-26.92,60.39-60.38,60.39c-22.85,0-42.43-12.24-52.22-30.19
				c-5.3,8.98-12.86,16.521-21.83,21.83c-8.98,5.301-19.39,8.36-30.4,8.36c-33.45,0-60.38-26.93-60.38-60.39h14.69
				c0,24.479,20.4,44.88,44.88,44.88c20.4,0,37.53-13.87,43.24-33.45l-19.58-41.62h60.38l-21.21,41.62
				c5.71,19.58,22.85,33.45,43.25,33.45C384.34,523.7,404.74,503.3,404.74,478.82z"/>
			<path fill="#6FB002" d="M248.06,388.25c0,17.13-13.05,30.19-30.19,30.19c-17.13,0-30.19-13.061-30.19-30.19
				c0-17.14,13.87-30.19,30.19-30.19C234.19,358.06,248.06,371.11,248.06,388.25z"/>
			<path fill="#6FB002" d="M119.14,484.54c1.63,4.08,0,8.16-3.27,9.79l-29.31,14.66l-5.03-13.82l27.81-13.9
				C112.61,479.64,117.5,480.46,119.14,484.54z"/>
			<path fill="#6FB002" d="M110.98,445.37c0.81,4.08-2.45,8.16-6.53,8.97L74.81,458.9l-0.43-15.811l27.62-4.25
				C106.08,438.02,110.16,441.29,110.98,445.37z"/>
			<polygon fill="#6FB002" points="81.53,495.17 86.56,508.99 74.4,515.07 69.29,501.3 			"/>
			<polygon fill="#6FB002" points="79.15,488.62 81.53,495.17 69.29,501.3 66.1,492.7 61.2,469.85 60.75,461.06 74.81,458.9 
				75.07,468.22 			"/>
			<polygon fill="#6FB002" points="74.38,443.09 74.81,458.9 60.75,461.06 59.94,445.31 			"/>
			<path fill="#6FB002" d="M69.29,501.3l5.11,13.771l-45.02,22.51c-0.82,0.81-1.64,0.81-3.27,0.81c-2.45,0-5.71-1.63-6.53-4.08
				c-1.63-4.079,0-8.159,3.27-9.79L69.29,501.3z"/>
			<path fill="#6FB002" d="M59.94,445.31l0.81,15.75L8.98,469.03c-0.82,0-0.82,0-1.64,0c-3.26,0-6.52-2.45-7.34-6.53
				s2.45-8.16,6.53-8.97L59.94,445.31z"/>
		</g>
		<g>
		</g>
	</g>
</g>
</svg>
