<?xml version="1.0" encoding="utf-8"?>
<!-- Generator: Adobe Illustrator 15.1.0, SVG Export Plug-In . SVG Version: 6.00 Build 0)  -->
<!DOCTYPE svg PUBLIC "-//W3C//DTD SVG 1.1//EN" "http://www.w3.org/Graphics/SVG/1.1/DTD/svg11.dtd">
<svg version="1.1" id="Capa_1" xmlns="http://www.w3.org/2000/svg" xmlns:xlink="http://www.w3.org/1999/xlink" x="0px" y="0px"
	 width="612px" height="792px" viewBox="0 0 612 792" enable-background="new 0 0 612 792" xml:space="preserve">
<g>
	<g id="XMLID_1_">
		<g>
			<path fill="#6FB002" d="M515.01,365.99l22.73,55.31c7.35,17.13,13.88,21.21,16.319,21.21c11.431-13.05,59.57-142.8,39.171-192.57
				c-8.971-21.22-39.171-45.7-85.681-71c-39.17-20.4-75.069-33.45-79.97-34.27c0-0.81-0.811-0.81-1.63-0.81l-2.63-0.79
				c0.359-0.5,0.689-1.05,1-1.66c2.449-4.08,0.819-8.16-3.261-9.79c-0.46-0.21-0.92-0.42-1.38-0.62c2.17-0.92,5.03-1.39,8.721-1.02
				c8.159,0.82,47.33,15.51,84.859,35.09c35.09,18.77,80.79,47.33,93.03,78.34c11.42,26.93,4.08,72.62-4.08,106.08
				c-8.979,39.17-23.67,76.7-32.64,93.84c-4.08,8.16-7.351,11.42-11.431,12.24c0,0.81-1.63,0.81-4.08,0.81
				c-1.63,0-4.079-0.81-6.52-1.63c-8.98-3.26-16.32-13.05-23.67-28.56l-14.13-34.53c1.26-6.77,2.43-13.75,3.52-20.96
				c0.28-1.42,0.181-2.73-0.26-3.88L515.01,365.99z"/>
			<path fill="#6FB002" d="M515.01,365.99l-2.01,0.83c-0.82-2.17-2.79-3.75-5.45-4.28c-3.68-0.73-6.7,1.2-7.85,4.58l-84.36-206.13
				c-1.13-2.84-4.24-10.02-3.83-16.87c1,0.44,2.01,0.9,3.021,1.37c1.63,0.81,2.45,0.81,3.26,0.81c1.99,0,3.979-1.08,5.53-3.23
				l2.63,0.79c-0.811,1.63,0.819,7.34,2.45,11.42L515.01,365.99z"/>
			<path fill="#6FB002" d="M513,366.82c0.44,1.15,0.54,2.46,0.26,3.88c-1.09,7.21-2.26,14.19-3.52,20.96l-10.04-24.54
				c1.149-3.38,4.17-5.31,7.85-4.58C510.21,363.07,512.18,364.65,513,366.82z"/>
			<path fill="#6FB002" d="M499.7,367.12l10.04,24.54c-32.21,173.68-118.44,204.3-151.42,209.67c-0.04-1.7-0.101-2.74-0.101-2.96
				c-0.81-3.271-4.08-6.53-8.16-6.53c-3.26,0.82-7.34,4.08-6.52,8.16c0,0.11,0.04,0.97,0.08,2.43
				c-12.311-0.239-22.04-2.34-29.46-6.55v-20.6c0.479,1.3,1.24,2.81,2.45,4.319c3.26,4.08,11.42,8.16,28.56,8.16
				c4.89,0,119.13-1.63,154.22-219.5C499.47,367.86,499.57,367.48,499.7,367.12z"/>
			<path fill="#6FB002" d="M439.01,360.1c1.63,3.26-1.63,6.52-6.529,7.34c-4.08,0-6.53-3.26-7.341-6.53
				c-0.62-7.6-2.779-13.23-5.729-17.41c0.01-0.18,0.01-0.36,0.01-0.54c0-11.77-7.86-21.97-18.54-25.55
				C416.55,319.86,436.35,330.33,439.01,360.1z"/>
			<path fill="#6FB002" d="M421.06,131.62c4.08,1.63,5.71,5.71,3.261,9.79c-0.311,0.61-0.641,1.16-1,1.66
				c-1.551,2.15-3.54,3.23-5.53,3.23c-0.81,0-1.63,0-3.26-0.81c-1.011-0.47-2.021-0.93-3.021-1.37c0.181-3,1.03-5.94,3.021-8.42
				c0.89-1.79,2.52-3.58,5.149-4.7C420.14,131.2,420.6,131.41,421.06,131.62z"/>
			<path fill="#6FB002" d="M419.42,342.96c0,0.18,0,0.36-0.01,0.54c-6.34-8.97-16.3-11.22-22.25-11.78c-1.45-0.64-3.03-1-4.66-1
				c-1.1,0-2.17,0.16-3.2,0.47c-2.52-1.06-4.38-3.83-4.96-6.18c-0.82-4.08,3.26-7.35,6.521-8.16c2.93-0.16,6.359-0.02,10.02,0.56
				C411.56,320.99,419.42,331.19,419.42,342.96z"/>
			<path fill="#6FB002" d="M419.68,131c-2.63,1.12-4.26,2.91-5.149,4.7c-1.99,2.48-2.84,5.42-3.021,8.42
				c-51.67-23.15-89.39-22.06-100.97-21.06c1.83-1.11,3.14-2.93,3.62-5.32c0.82-4.08-1.63-7.34-5.71-8.16
				c-0.391-0.13-1.87-0.44-4.35-0.74c0.09-0.03,0.18-0.05,0.27-0.07C305.99,107.96,351.89,100.71,419.68,131z"/>
			<path fill="#6FB002" d="M390.86,316.85c-3.261,0.81-7.341,4.08-6.521,8.16c0.58,2.35,2.44,5.12,4.96,6.18
				c-5.09,1.48-9.04,6.34-9.04,11.77c0,6.53,5.71,12.24,12.24,12.24c6.52,0,12.24-5.71,12.24-12.24c0-4.9-3.221-9.33-7.58-11.24
				c5.95,0.56,15.91,2.81,22.25,11.78c-0.28,15.23-12.4,26.39-26.91,26.39c-14.69,0-26.93-12.24-26.93-26.93
				s12.239-26.93,26.93-26.93c2.92,0,5.73,0.48,8.38,1.38C397.22,316.83,393.79,316.69,390.86,316.85z"/>
			<path fill="#FFFFFF" d="M392.5,330.72c1.63,0,3.21,0.36,4.66,1c-2.29-0.22-3.98-0.18-4.66-0.18c-1.14,0.23-2.22,0.07-3.2-0.35
				C390.33,330.88,391.4,330.72,392.5,330.72z"/>
			<path fill="#6FB002" d="M358.22,598.37c0,0.22,0.061,1.26,0.101,2.96c-6.33,1.02-10.69,1.12-12.34,1.12
				c-0.801,0-1.58-0.01-2.36-0.021c-0.04-1.46-0.08-2.319-0.08-2.43c-0.82-4.08,3.26-7.34,6.52-8.16
				C354.14,591.84,357.41,595.1,358.22,598.37z"/>
			<path fill="#6FB002" d="M361.49,503.71c0,18.01-23.45,42.9-48.15,46.81v-1.109c0-4.08-3.26-7.351-7.34-7.351
				s-7.34,3.271-7.34,7.351v0.81c-24.1-4.71-46.52-28.979-46.52-47.319c0-21.221,27.75-21.221,54.68-21.221
				C328.85,481.68,361.49,481.68,361.49,503.71z M346.8,503.71c0.82-3.26-4.899-7.34-39.979-7.34c-16.32,0-39.99,0-39.99,6.53
				c0,9.79,19.59,33.449,39.99,33.449C327.22,536.35,346.8,513.5,346.8,503.71z"/>
			<path fill="#6FB002" d="M308.45,109.58c4.08,0.82,6.53,4.08,5.71,8.16c-0.48,2.39-1.79,4.21-3.62,5.32
				c-2.32,0.2-3.59,0.4-3.72,0.4c-4.08,0.81-8.16-1.64-8.16-5.72c-0.8-3.99,1.52-7.98,5.44-8.9
				C306.58,109.14,308.06,109.45,308.45,109.58z"/>
			<path fill="#FFFFFF" d="M314.16,563.28v12c-0.82-2.221-0.82-3.84-0.82-3.84v-0.82v-7.34v-3.38
				C313.87,560.91,314.16,562.06,314.16,563.28z"/>
			<path fill="#FFFFFF" d="M313.34,571.44c0,0,0,1.619,0.82,3.84v20.6c-0.28-0.16-0.55-0.32-0.82-0.49V571.44z"/>
			<path fill="#6FB002" d="M313.34,595.39V676.7c0,4.71-3.01,7.16-6.87,7.33c-3.92-0.17-7-3.37-7-7.33V594.89
				c2.45-1.569,4.62-3.399,6.53-5.5C308.11,591.72,310.55,593.71,313.34,595.39z"/>
			<path fill="#6FB002" d="M313.34,571.44v23.949c-2.79-1.68-5.229-3.67-7.34-6c7.34-8.159,7.34-16.319,7.34-18.77V571.44z"/>
			<path fill="#6FB002" d="M313.34,563.28v7.34c0,2.45,0,10.61-7.34,18.77c-3.83-4.26-5.66-8.51-6.53-11.96V563.28
				c0-3.94,3.05-7.12,6.94-7.32C310.3,556.16,313.34,559.34,313.34,563.28z"/>
			<path fill="#6FB002" d="M313.34,550.52v9.381c-1.21-2.36-3.66-3.96-6.52-3.96c-0.141,0-0.271,0-0.41,0.02
				c-0.14-0.02-0.27-0.02-0.41-0.02c-4.08,0-7.34,3.26-7.34,7.34V550.22c2.71,0.54,5.44,0.82,8.16,0.82
				C308.99,551.04,311.17,550.86,313.34,550.52z"/>
			<path fill="#FFFFFF" d="M313.34,563.28c0-3.94-3.04-7.12-6.93-7.32c0.14-0.02,0.27-0.02,0.41-0.02c2.859,0,5.31,1.6,6.52,3.96
				V563.28z"/>
			<path fill="#6FB002" d="M314.16,669.36c5.71-0.82,9.79-4.08,13.87-8.16c15.51-16.22,15.8-49.5,15.59-58.771
				c0.78,0.011,1.56,0.021,2.36,0.021c1.649,0,6.01-0.101,12.34-1.12c0.31,10.83,0.08,48.38-19.681,68.85
				c-8.979,9.79-19.58,13.87-31.819,13.87c-0.12,0-0.23,0-0.35-0.02c3.86-0.17,6.87-2.62,6.87-7.33V595.39
				c0.271,0.17,0.54,0.33,0.82,0.49V669.36z"/>
			<path fill="#6FB002" d="M313.34,549.41v1.109c-2.17,0.341-4.35,0.521-6.52,0.521c-2.72,0-5.45-0.28-8.16-0.82v-0.81
				c0-4.08,3.26-7.351,7.34-7.351S313.34,545.33,313.34,549.41z"/>
			<path fill="#6FB002" d="M298.66,117.74c0,4.08,4.08,6.53,8.16,5.72c0.13,0,1.399-0.2,3.72-0.4c-1.29,0.79-2.85,1.21-4.54,1.21
				c-0.81,0-43.75-7.15-105.29,20.91c-0.12-3.36-1.02-6.71-3.24-9.48c-0.79-1.18-2.15-2.74-4.26-3.95
				c56.32-26.1,97.72-24.55,110.89-22.91C300.18,109.76,297.86,113.75,298.66,117.74z"/>
			<path fill="#6FB002" d="M306,589.39c-1.91,2.101-4.08,3.931-6.53,5.5v-17.46C300.34,580.88,302.17,585.13,306,589.39z"/>
			<path fill="#6FB002" d="M299.47,676.7c0,3.96,3.08,7.16,7,7.33c-0.16,0.02-0.31,0.02-0.47,0.02c-12.24,0-23.66-4.08-31.82-13.87
				c-19.05-20.449-19.8-57.96-19.66-68.83c5.95,0.99,10.02,1.101,11.5,1.101c1.08,0,2.14-0.01,3.18-0.04
				c-0.21,9.22,0.05,42.55,15.58,58.79c4.08,4.08,8.16,6.53,13.88,8.16V595.39c0.27-0.159,0.54-0.33,0.81-0.5V676.7z"/>
			<path fill="#FFFFFF" d="M299.47,577.43v17.46c-0.27,0.17-0.54,0.341-0.81,0.5V573.36c0.03-0.25,0.05-0.48,0.06-0.681
				C298.8,573.94,298.99,575.57,299.47,577.43z"/>
			<path fill="#FFFFFF" d="M298.66,563.28c0-4.08,3.26-7.34,7.34-7.34c0.14,0,0.27,0,0.41,0.02c-3.89,0.2-6.94,3.38-6.94,7.32
				v14.149c-0.48-1.859-0.67-3.489-0.75-4.75c0.02-0.609-0.03-1.029-0.05-1.18c0-0.01,0-0.01,0-0.02
				c-0.01-0.341-0.01-0.62-0.01-0.86V563.28z"/>
			<path fill="#FFFFFF" d="M298.67,571.5c0.02,0.15,0.07,0.57,0.05,1.18C298.69,572.24,298.67,571.84,298.67,571.5z"/>
			<path fill="#FFFFFF" d="M298.67,571.48c0,0.01,0,0.01,0,0.02c0,0.34,0.02,0.74,0.05,1.18c-0.01,0.2-0.03,0.431-0.06,0.681v-1.92
				C298.66,571.44,298.66,571.45,298.67,571.48z"/>
			<path fill="#FFFFFF" d="M298.67,571.48c-0.01-0.03-0.01-0.04-0.01-0.04v-0.82C298.66,570.86,298.66,571.14,298.67,571.48z"/>
			<path fill="#6FB002" d="M298.66,573.36v22.029c-7.35,4.45-17.08,6.7-29.46,7.021c0.04-1.44,0.08-2.3,0.08-2.41
				c0.82-4.08-2.45-7.34-6.53-8.16c-4.08,0-7.34,2.45-8.16,6.53c0,0.22-0.04,1.27-0.07,2.979c-32.05-5.25-118.9-35.59-152.71-208.59
				l9.99-24.42c35.11,219.42,153.4,219.42,154.22,219.42c17.13,0,25.29-4.08,29.37-8.16C297.73,577.26,298.46,574.92,298.66,573.36z
				"/>
			<path fill="#6FB002" d="M262.75,591.84c4.08,0.82,7.35,4.08,6.53,8.16c0,0.11-0.04,0.97-0.08,2.41c-1.04,0.03-2.1,0.04-3.18,0.04
				c-1.48,0-5.55-0.11-11.5-1.101c0.03-1.71,0.07-2.76,0.07-2.979C255.41,594.29,258.67,591.84,262.75,591.84z"/>
			<path fill="#6FB002" d="M220.32,316.03c4.08,0.82,7.34,4.08,6.53,8.16c-0.82,4.08-4.08,6.53-8.16,6.53
				c-2.29,0-16.22-0.4-25.18,9.77C194.79,326.92,206.46,316.03,220.32,316.03z"/>
			<path fill="#6FB002" d="M220.32,330.72c-6.53,0-12.24,5.71-12.24,12.24c0,6.53,5.71,12.24,12.24,12.24
				c6.53,0,12.24-5.71,12.24-12.24C232.56,336.43,226.85,330.72,220.32,330.72z M218.69,330.72c4.08,0,7.34-2.45,8.16-6.53
				c0.81-4.08-2.45-7.34-6.53-8.16c14.69,0,26.93,12.24,26.93,26.93c-0.82,15.5-12.24,26.93-26.93,26.93s-26.93-12.24-26.93-26.93
				c0-0.83,0.04-1.66,0.12-2.47C202.47,330.32,216.4,330.72,218.69,330.72z"/>
			<path fill="#6FB002" d="M172.18,359.28c3.26-36.72,32.64-44.06,48.14-43.25c-13.86,0-25.53,10.89-26.81,24.46
				c-3.81,4.34-6.73,10.59-7.46,19.61c0.81,4.08-2.45,7.34-6.53,7.34C175.44,366.62,172.18,363.36,172.18,359.28z"/>
			<path fill="#6FB002" d="M200.71,145.18c-0.8,0.37-1.61,0.74-2.42,1.12c-1.63,0-2.45,0-3.27,0c-2.85,0-5.08-1.25-6.14-3.2
				c-0.15-0.28-0.28-0.58-0.38-0.88c-1.64-4.08,0-8.16,3.26-9.79c0.49-0.23,0.97-0.45,1.45-0.68c2.11,1.21,3.47,2.77,4.26,3.95
				C199.69,138.47,200.59,141.82,200.71,145.18z"/>
			<path fill="#6FB002" d="M188.88,143.1c1.06,1.95,3.29,3.2,6.14,3.2c0.82,0,1.64,0,3.27,0c0.81-0.38,1.62-0.75,2.42-1.12
				c0.24,6.52-2.44,13.12-4.05,15.81L111.8,368.34c0-0.03-0.01-0.05-0.01-0.08c0-4.08-4.08-6.53-8.16-5.72
				c-2.44,0-4.3,1.46-5.22,3.51l-1.31-0.55l87.32-210.22c1.63-4.08,3.26-8.98,2.44-11.42L188.88,143.1z"/>
			<path fill="#FFFFFF" d="M111.79,368.26c0,0.03,0.01,0.05,0.01,0.08l-9.99,24.42c-1.39-7.11-2.69-14.46-3.89-22.06
				c-0.33-1.64-0.13-3.28,0.49-4.65c0.92-2.05,2.78-3.51,5.22-3.51C107.71,361.73,111.79,364.18,111.79,368.26z"/>
			<path fill="#6FB002" d="M188.5,142.22c0.1,0.3,0.23,0.6,0.38,0.88l-2.02,0.76c-0.81,0-1.63,0-2.44,0
				c-4.9,0.81-41.62,13.87-79.97,34.27c-46.51,24.48-77.52,49.77-85.68,70.99C-1.63,298.9,46.51,428.64,57.94,441.7
				c2.44,0,8.97-4.08,16.32-21.22L97.1,365.5l1.31,0.55c-0.62,1.37-0.82,3.01-0.49,4.65c1.2,7.6,2.5,14.95,3.89,22.06L88.13,426.19
				c-6.53,15.51-13.87,25.3-22.85,28.56c-2.45,1.63-4.9,1.63-6.53,1.63s-4.08-0.81-4.89-0.81c-4.08-0.82-6.53-4.08-11.43-12.24
				c-9.79-16.32-23.66-54.67-32.64-93.84C1.63,316.03-4.9,271.15,5.71,243.41c12.24-31.01,57.94-59.57,93.03-78.34
				c37.53-19.58,76.7-35.09,84.86-35.09c0.72-0.07,1.4-0.1,2.06-0.1c3.2,0,5.67,0.79,7.55,1.87c-0.48,0.23-0.96,0.45-1.45,0.68
				C188.5,134.06,186.86,138.14,188.5,142.22z"/>
		</g>
		<g>
		</g>
	</g>
</g>
</svg>
